# xmcd CD database file
#
# Track frame offsets:
#	150
#	14562
#	27504
#	39771
#	51458
#	65830
#	79918
#	93347
#	107124
#	121320
#	134820
#	147264
#	160564
#	174373
#	189036
#	202598
#	214733
#	227172
#	240134
#	253207
#	266678
#
# Disc length: 3746 seconds
#
# Revision: 3
# Processed by: cddbd v1.4PL0 Copyright (c) Steve Scherf et al.
# Submitted via: NeoAudio 9.9.9
#
DISCID=220ea015
DTITLE=Louis Prima - Angelina
DYEAR=1999
DGENRE=Jazz
TTITLE0=Angelina
TTITLE1=Leap before you look (funiculì funiculà)
TTITLE2=Margherita
TTITLE3=Josephine, please no lean on da bell
TTITLE4=Felicia, no capicia
TTITLE5=Please, no squeeza da banana
TTITLE6=Baciagaloop
TTITLE7=He like it, she like it
TTITLE8=Do a little business on the side
TTITLE9=Baby, won't ypu please come home
TTITLE10=Boogie in chicago
TTITLE11=Pickle in the middle
TTITLE12=Waitin' for the train to come in
TTITLE13=Hi ho tralius bootwhip
TTITLE14=Sing, sing, sing
TTITLE15=Oh, marie
TTITLE16=St. louis blues
TTITLE17=I'm through being blue over you
TTITLE18=I'll be with you in apple blossom time
TTITLE19=Come rain or come shine
TTITLE20=I don't want to be loved
EXTD=YEAR: 1999
EXTT0=
EXTT1=
EXTT2=
EXTT3=
EXTT4=
EXTT5=
EXTT6=
EXTT7=
EXTT8=
EXTT9=
EXTT10=
EXTT11=
EXTT12=
EXTT13=
EXTT14=
EXTT15=
EXTT16=
EXTT17=
EXTT18=
EXTT19=
EXTT20=
PLAYORDER=
